<?xml version="1.0" encoding="UTF-8"?>
<svg xmlns="http://www.w3.org/2000/svg" width="15" height="22" viewBox="0 0 15 22" fill="none">
  <g id="mdi:location" clip-path="url(#clip0_133_5255)">
    <path id="Vector" d="M7.87476 10.0802C7.21171 10.0802 6.57583 9.81681 6.10699 9.34797C5.63815 8.87913 5.37476 8.24324 5.37476 7.5802C5.37476 6.91716 5.63815 6.28127 6.10699 5.81243C6.57583 5.34359 7.21171 5.0802 7.87476 5.0802C8.5378 5.0802 9.17368 5.34359 9.64252 5.81243C10.1114 6.28127 10.3748 6.91716 10.3748 7.5802C10.3748 7.9085 10.3101 8.23359 10.1845 8.53691C10.0588 8.84022 9.87467 9.11582 9.64252 9.34797C9.41038 9.58011 9.13478 9.76426 8.83146 9.8899C8.52815 10.0155 8.20306 10.0802 7.87476 10.0802ZM7.87476 0.5802C6.01824 0.5802 4.23776 1.3177 2.92501 2.63045C1.61225 3.94321 0.874756 5.72368 0.874756 7.5802C0.874756 12.8302 7.87476 20.5802 7.87476 20.5802C7.87476 20.5802 14.8748 12.8302 14.8748 7.5802C14.8748 5.72368 14.1373 3.94321 12.8245 2.63045C11.5117 1.3177 9.73127 0.5802 7.87476 0.5802Z" fill="#FF8728"></path>
  </g>
  <defs>
    <clipPath id="clip0_133_5255">
      <rect width="15" height="21" fill="white" transform="translate(0 0.5)"></rect>
    </clipPath>
  </defs>
</svg>
