<?xml version="1.0" encoding="UTF-8"?>
<svg xmlns="http://www.w3.org/2000/svg" width="64" height="64" viewBox="0 0 64 64" fill="none">
  <g id="emojione-v1:flag-for-canada">
    <path id="Vector" d="M16 11H48V55H16V11Z" fill="#E6E7E8"></path>
    <path id="Vector_2" d="M10 11C3.373 11 0 15.925 0 22V44C0 50.075 3.373 55 10 55H16V11H10ZM54 11H48V55H54C60.627 55 64 50.075 64 44V22C64 15.925 60.627 11 54 11Z" fill="#EC1C24"></path>
    <path id="Vector_3" fill-rule="evenodd" clip-rule="evenodd" d="M44.2598 32.6408C43.8028 32.4338 43.7258 32.2878 43.8618 31.7828C44.2008 30.5198 44.5498 29.2618 44.8928 28.0008C44.9218 27.8978 44.9478 27.7918 44.9868 27.6408C44.5628 27.7258 44.1668 27.8018 43.7708 27.8878C42.9698 28.0578 42.1738 28.2308 41.3748 28.3998C40.8528 28.5088 40.6138 28.3628 40.4658 27.8468C40.3268 27.3588 40.1898 26.8698 39.9668 26.3118C39.9158 26.3958 39.8788 26.4928 39.8138 26.5638C38.8988 27.5968 37.9788 28.6268 37.0578 29.6598C36.7728 29.9738 36.4558 30.1108 36.2318 29.9868C35.9028 29.8008 35.9148 29.4718 35.9688 29.1648C36.2118 27.8238 36.4638 26.4858 36.7138 25.1448C36.8968 24.1718 37.0798 23.2038 37.2678 22.1898C37.1728 22.2258 37.1088 22.2438 37.0518 22.2718C36.5338 22.5398 36.0218 22.8128 35.5028 23.0748C34.8668 23.3938 34.5468 23.2888 34.2148 22.6738C33.5118 21.3708 32.8148 20.0658 32.1138 18.7618C32.0778 18.6978 32.0538 18.6338 31.9988 18.5518L31.8838 18.7618C31.1848 20.0658 30.4868 21.3708 29.7848 22.6738C29.4518 23.2888 29.1308 23.3948 28.4948 23.0748C27.9758 22.8128 27.4638 22.5398 26.9458 22.2718C26.8888 22.2438 26.8248 22.2258 26.7298 22.1898C26.9178 23.2038 27.1008 24.1718 27.2838 25.1448C27.5338 26.4818 27.7868 27.8198 28.0278 29.1648C28.0838 29.4728 28.0948 29.8018 27.7658 29.9868C27.5408 30.1108 27.2248 29.9738 26.9408 29.6598C26.0188 28.6268 25.0988 27.5968 24.1838 26.5638C24.1188 26.4928 24.0808 26.3958 24.0308 26.3118C23.8078 26.8708 23.6708 27.3588 23.5318 27.8468C23.3838 28.3628 23.1428 28.5088 22.6228 28.3998C21.8238 28.2308 21.0268 28.0578 20.2268 27.8878C19.8308 27.8018 19.4348 27.7258 19.0108 27.6408C19.0498 27.7918 19.0748 27.8988 19.1048 28.0008C19.4478 29.2618 19.7968 30.5208 20.1358 31.7828C20.2718 32.2888 20.1948 32.4338 19.7378 32.6408C19.3148 32.8328 18.8928 33.0358 18.4458 33.2448C18.5258 33.3168 18.5708 33.3598 18.6208 33.4008C19.6848 34.2668 20.7488 35.1298 21.8148 35.9958C22.8458 36.8338 23.8728 37.6708 24.9048 38.5058C25.2658 38.7968 25.3848 39.1508 25.2358 39.5928C25.1518 39.8528 25.0768 40.1128 24.9988 40.3738C24.9048 40.6808 24.8128 40.9898 24.7088 41.3408C25.7318 41.1958 26.6978 41.0608 27.6708 40.9258C28.8118 40.7688 29.9518 40.6078 31.0958 40.4638C31.4878 40.4128 31.7788 40.7118 31.7628 41.1008C31.6768 43.1638 31.4778 45.4928 31.4638 47.4468H32.5338C32.5198 45.4928 32.3218 43.1648 32.2358 41.1008C32.2178 40.7118 32.5098 40.4128 32.9018 40.4638C34.0458 40.6078 35.1858 40.7688 36.3268 40.9258C37.2998 41.0608 38.2658 41.1968 39.2888 41.3408C39.1848 40.9898 39.0928 40.6808 38.9988 40.3738C38.9208 40.1118 38.8458 39.8528 38.7618 39.5928C38.6128 39.1508 38.7318 38.7968 39.0928 38.5058C40.1258 37.6708 41.1518 36.8338 42.1828 35.9958C43.2488 35.1308 44.3128 34.2668 45.3768 33.4008C45.4268 33.3598 45.4718 33.3168 45.5518 33.2448C45.1038 33.0348 44.6838 32.8328 44.2598 32.6408Z" fill="#EC1C24"></path>
  </g>
</svg>
