<?xml version="1.0" encoding="UTF-8"?>
<svg xmlns="http://www.w3.org/2000/svg" width="52" height="52" viewBox="0 0 52 52" fill="none">
  <g id="Frame">
    <g id="Group">
      <path id="Vector" d="M50.0906 11.6756C50.015 11.5824 49.9197 11.5071 49.8115 11.4551C49.7034 11.4032 49.585 11.3758 49.465 11.375H48.75V2.4375C48.75 2.22201 48.6644 2.01535 48.512 1.86298C48.3597 1.7106 48.153 1.625 47.9375 1.625H31.6875C31.472 1.625 31.2653 1.7106 31.113 1.86298C30.9606 2.01535 30.875 2.22201 30.875 2.4375V11.375H30.16C30.04 11.3758 29.9216 11.4032 29.8135 11.4551C29.7053 11.5071 29.61 11.5824 29.5344 11.6756C29.4574 11.7697 29.4029 11.88 29.3747 11.9982C29.3466 12.1164 29.3456 12.2395 29.3719 12.3581L30.0788 15.6081C30.1178 15.7901 30.2183 15.9532 30.3632 16.0701C30.5082 16.1869 30.6888 16.2504 30.875 16.25H48.75C48.9362 16.2504 49.1168 16.1869 49.2618 16.0701C49.4067 15.9532 49.5072 15.7901 49.5462 15.6081L50.2531 12.3581C50.2794 12.2395 50.2784 12.1164 50.2503 11.9982C50.2221 11.88 50.1676 11.7697 50.0906 11.6756ZM32.5 3.25H47.125V11.375H41.4375C41.222 11.375 41.0153 11.4606 40.863 11.613C40.7106 11.7653 40.625 11.972 40.625 12.1875H39C39 11.972 38.9144 11.7653 38.762 11.613C38.6097 11.4606 38.403 11.375 38.1875 11.375H32.5V3.25ZM48.1 14.625H31.525L31.1756 13H37.375C37.375 13.2155 37.4606 13.4222 37.613 13.5745C37.7653 13.7269 37.972 13.8125 38.1875 13.8125H41.4375C41.653 13.8125 41.8597 13.7269 42.012 13.5745C42.1644 13.4222 42.25 13.2155 42.25 13H48.4494L48.1 14.625ZM17.0625 34.125H4.0625C3.41663 34.1269 2.79776 34.3844 2.34106 34.8411C1.88436 35.2978 1.62693 35.9166 1.625 36.5625V44.6875C1.62693 45.3334 1.88436 45.9522 2.34106 46.4089C2.79776 46.8656 3.41663 47.1231 4.0625 47.125H7.14187L6.5975 49.3675C6.56594 49.4873 6.56273 49.6129 6.58812 49.7341C6.6135 49.8554 6.66679 49.9691 6.74375 50.0662C6.82027 50.1631 6.91783 50.2412 7.02905 50.2947C7.14027 50.3482 7.26221 50.3757 7.38562 50.375H13.7394C13.8628 50.3757 13.9847 50.3482 14.0959 50.2947C14.2072 50.2412 14.3047 50.1631 14.3813 50.0662C14.4582 49.9691 14.5115 49.8554 14.5369 49.7341C14.5623 49.6129 14.5591 49.4873 14.5275 49.3675L13.9831 47.125H17.0625C17.7084 47.1231 18.3272 46.8656 18.7839 46.4089C19.2406 45.9522 19.4981 45.3334 19.5 44.6875V36.5625C19.4981 35.9166 19.2406 35.2978 18.7839 34.8411C18.3272 34.3844 17.7084 34.1269 17.0625 34.125ZM8.4175 48.75L8.81563 47.125H12.3094L12.7075 48.75H8.4175ZM17.875 44.6875C17.875 44.903 17.7894 45.1097 17.637 45.262C17.4847 45.4144 17.278 45.5 17.0625 45.5H4.0625C3.84701 45.5 3.64035 45.4144 3.48798 45.262C3.3356 45.1097 3.25 44.903 3.25 44.6875V43.875H17.875V44.6875ZM17.875 42.25H3.25V36.5625C3.25 36.347 3.3356 36.1403 3.48798 35.988C3.64035 35.8356 3.84701 35.75 4.0625 35.75H17.0625C17.278 35.75 17.4847 35.8356 17.637 35.988C17.7894 36.1403 17.875 36.347 17.875 36.5625V42.25ZM47.9375 32.5H41.4375C40.7916 32.5019 40.1728 32.7594 39.7161 33.2161C39.2594 33.6728 39.0019 34.2916 39 34.9375V47.9375C39.0019 48.5834 39.2594 49.2022 39.7161 49.6589C40.1728 50.1156 40.7916 50.3731 41.4375 50.375H47.9375C48.5834 50.3731 49.2022 50.1156 49.6589 49.6589C50.1156 49.2022 50.3731 48.5834 50.375 47.9375V34.9375C50.3731 34.2916 50.1156 33.6728 49.6589 33.2161C49.2022 32.7594 48.5834 32.5019 47.9375 32.5ZM46.3125 34.125C46.3125 34.3405 46.2269 34.5472 46.0745 34.6995C45.9222 34.8519 45.7155 34.9375 45.5 34.9375H43.875C43.6595 34.9375 43.4528 34.8519 43.3005 34.6995C43.1481 34.5472 43.0625 34.3405 43.0625 34.125H46.3125ZM48.75 47.9375C48.75 48.153 48.6644 48.3597 48.512 48.512C48.3597 48.6644 48.153 48.75 47.9375 48.75H41.4375C41.222 48.75 41.0153 48.6644 40.863 48.512C40.7106 48.3597 40.625 48.153 40.625 47.9375V34.9375C40.625 34.722 40.7106 34.5153 40.863 34.363C41.0153 34.2106 41.222 34.125 41.4375 34.125C41.4394 34.7709 41.6969 35.3897 42.1536 35.8464C42.6103 36.3031 43.2291 36.5606 43.875 36.5625H45.5C46.1459 36.5606 46.7647 36.3031 47.2214 35.8464C47.6781 35.3897 47.9356 34.7709 47.9375 34.125C48.153 34.125 48.3597 34.2106 48.512 34.363C48.6644 34.5153 48.75 34.722 48.75 34.9375V47.9375ZM13.8125 1.625H4.0625C3.41663 1.62693 2.79776 1.88436 2.34106 2.34106C1.88436 2.79776 1.62693 3.41663 1.625 4.0625V17.0625C1.62693 17.7084 1.88436 18.3272 2.34106 18.7839C2.79776 19.2406 3.41663 19.4981 4.0625 19.5H13.8125C14.4584 19.4981 15.0772 19.2406 15.5339 18.7839C15.9906 18.3272 16.2481 17.7084 16.25 17.0625V4.0625C16.2481 3.41663 15.9906 2.79776 15.5339 2.34106C15.0772 1.88436 14.4584 1.62693 13.8125 1.625ZM14.625 17.0625C14.625 17.278 14.5394 17.4847 14.387 17.637C14.2347 17.7894 14.028 17.875 13.8125 17.875H4.0625C3.84701 17.875 3.64035 17.7894 3.48798 17.637C3.3356 17.4847 3.25 17.278 3.25 17.0625V4.0625C3.25 3.84701 3.3356 3.64035 3.48798 3.48798C3.64035 3.3356 3.84701 3.25 4.0625 3.25H13.8125C14.028 3.25 14.2347 3.3356 14.387 3.48798C14.5394 3.64035 14.625 3.84701 14.625 4.0625V17.0625Z" fill="#FF8728"></path>
      <path id="Vector_2" d="M8.125 14.625H9.75V16.25H8.125V14.625ZM34.2225 23.6438L32.2725 23.4L33.4831 21.8481C33.6047 21.6915 33.6644 21.4957 33.6509 21.2979C33.6374 21.1002 33.5517 20.9143 33.41 20.7756L31.2244 18.59C31.0852 18.4493 30.8994 18.3642 30.7019 18.3507C30.5045 18.3373 30.3089 18.3963 30.1519 18.5169L28.6 19.7275L28.3563 17.7775C28.3301 17.5802 28.2334 17.3991 28.084 17.2677C27.9347 17.1362 27.7427 17.0633 27.5438 17.0625H24.4563C24.2573 17.0633 24.0653 17.1362 23.916 17.2677C23.7666 17.3991 23.6699 17.5802 23.6438 17.7775L23.4 19.7275L21.8481 18.5169C21.6911 18.3963 21.4955 18.3373 21.2981 18.3507C21.1006 18.3642 20.9148 18.4493 20.7756 18.59L18.59 20.7756C18.4483 20.9143 18.3626 21.1002 18.3491 21.2979C18.3356 21.4957 18.3953 21.6915 18.5169 21.8481L19.7275 23.4L17.7775 23.6438C17.5802 23.6699 17.3991 23.7666 17.2677 23.916C17.1362 24.0653 17.0633 24.2573 17.0625 24.4563V27.5438C17.0633 27.7427 17.1362 27.9347 17.2677 28.084C17.3991 28.2334 17.5802 28.3301 17.7775 28.3563L19.7275 28.6L18.5169 30.1519C18.3953 30.3085 18.3356 30.5043 18.3491 30.7021C18.3626 30.8998 18.4483 31.0857 18.59 31.2244L20.7756 33.41C20.9148 33.5507 21.1006 33.6358 21.2981 33.6493C21.4955 33.6628 21.6911 33.6037 21.8481 33.4831L23.4 32.2725L23.6438 34.2225C23.6699 34.4198 23.7666 34.6009 23.916 34.7323C24.0653 34.8638 24.2573 34.9367 24.4563 34.9375H27.5438C27.7427 34.9367 27.9347 34.8638 28.084 34.7323C28.2334 34.6009 28.3301 34.4198 28.3563 34.2225L28.6 32.2725L30.1519 33.4831C30.3089 33.6037 30.5045 33.6628 30.7019 33.6493C30.8994 33.6358 31.0852 33.5507 31.2244 33.41L33.41 31.2244C33.5517 31.0857 33.6374 30.8998 33.6509 30.7021C33.6644 30.5043 33.6047 30.3085 33.4831 30.1519L32.2725 28.6L34.2225 28.3563C34.4198 28.3301 34.6009 28.2334 34.7323 28.084C34.8638 27.9347 34.9367 27.7427 34.9375 27.5438V24.4563C34.9367 24.2573 34.8638 24.0653 34.7323 23.916C34.6009 23.7666 34.4198 23.6699 34.2225 23.6438ZM33.3125 26.8288L31.3869 27.0725C31.2355 27.0903 31.0923 27.151 30.9743 27.2474C30.8562 27.3439 30.7682 27.4721 30.7206 27.6169C30.6475 27.8119 30.5662 28.0069 30.4769 28.1938C30.4087 28.3296 30.3809 28.4822 30.3967 28.6334C30.4125 28.7846 30.4714 28.9281 30.5662 29.0469L31.7606 30.5825L30.5825 31.7606L29.0469 30.5662C28.9281 30.4714 28.7846 30.4125 28.6334 30.3967C28.4822 30.3809 28.3296 30.4087 28.1938 30.4769C28.003 30.5679 27.8077 30.6492 27.6087 30.7206C27.4657 30.7699 27.3395 30.8586 27.2446 30.9765C27.1498 31.0943 27.0901 31.2366 27.0725 31.3869L26.8288 33.3125H25.1712L24.9275 31.3869C24.9099 31.2366 24.8502 31.0943 24.7554 30.9765C24.6605 30.8586 24.5343 30.7699 24.3913 30.7206C24.1923 30.6492 23.997 30.5679 23.8062 30.4769C23.6704 30.4087 23.5178 30.3809 23.3666 30.3967C23.2154 30.4125 23.0719 30.4714 22.9531 30.5662L21.4175 31.7606L20.2394 30.5825L21.4337 29.0469C21.5286 28.9281 21.5875 28.7846 21.6033 28.6334C21.6191 28.4822 21.5913 28.3296 21.5231 28.1938C21.4338 28.0069 21.3525 27.8119 21.2794 27.6169C21.2318 27.4721 21.1438 27.3439 21.0257 27.2474C20.9077 27.151 20.7645 27.0903 20.6131 27.0725L18.6875 26.8288V25.1712L20.6131 24.9275C20.7645 24.9097 20.9077 24.849 21.0257 24.7526C21.1438 24.6561 21.2318 24.5279 21.2794 24.3831C21.3525 24.1881 21.4338 23.9931 21.5231 23.8062C21.5913 23.6704 21.6191 23.5178 21.6033 23.3666C21.5875 23.2154 21.5286 23.0719 21.4337 22.9531L20.2394 21.4175L21.4175 20.2394L22.9531 21.4337C23.0719 21.5286 23.2154 21.5875 23.3666 21.6033C23.5178 21.6191 23.6704 21.5913 23.8062 21.5231C23.9931 21.4337 24.1881 21.3525 24.3831 21.2794C24.5279 21.2318 24.6561 21.1438 24.7526 21.0257C24.849 20.9077 24.9097 20.7645 24.9275 20.6131L25.1712 18.6875H26.8288L27.0725 20.6131C27.0903 20.7645 27.151 20.9077 27.2474 21.0257C27.3439 21.1438 27.4721 21.2318 27.6169 21.2794C27.8119 21.3525 28.0069 21.4337 28.1938 21.5231C28.3296 21.5913 28.4822 21.6191 28.6334 21.6033C28.7846 21.5875 28.9281 21.5286 29.0469 21.4337L30.5825 20.2394L31.7606 21.4175L30.5662 22.9531C30.4714 23.0719 30.4125 23.2154 30.3967 23.3666C30.3809 23.5178 30.4087 23.6704 30.4769 23.8062C30.5662 23.9931 30.6475 24.1881 30.7206 24.3831C30.7682 24.5279 30.8562 24.6561 30.9743 24.7526C31.0923 24.849 31.2355 24.9097 31.3869 24.9275L33.3125 25.1712V26.8288Z" fill="#FF8728"></path>
      <path id="Vector_3" d="M30.0625 26C30.0625 25.1965 29.8242 24.4111 29.3778 23.743C28.9315 23.0749 28.297 22.5542 27.5547 22.2467C26.8123 21.9393 25.9955 21.8588 25.2074 22.0156C24.4194 22.1723 23.6955 22.5592 23.1274 23.1274C22.5592 23.6955 22.1723 24.4194 22.0156 25.2074C21.8588 25.9955 21.9393 26.8123 22.2467 27.5547C22.5542 28.297 23.0749 28.9315 23.743 29.3778C24.4111 29.8242 25.1965 30.0625 26 30.0625C27.077 30.0612 28.1096 29.6328 28.8712 28.8712C29.6328 28.1096 30.0612 27.077 30.0625 26ZM26 28.4375C25.5179 28.4375 25.0466 28.2945 24.6458 28.0267C24.245 27.7589 23.9325 27.3782 23.748 26.9328C23.5636 26.4874 23.5153 25.9973 23.6093 25.5245C23.7034 25.0516 23.9355 24.6173 24.2764 24.2764C24.6173 23.9355 25.0516 23.7034 25.5245 23.6093C25.9973 23.5153 26.4874 23.5636 26.9328 23.748C27.3782 23.9325 27.7589 24.245 28.0267 24.6458C28.2945 25.0466 28.4375 25.5179 28.4375 26C28.4375 26.6465 28.1807 27.2665 27.7236 27.7236C27.2665 28.1807 26.6465 28.4375 26 28.4375ZM36.5625 24.375V26H39.8125C40.028 26 40.2347 25.9144 40.387 25.762C40.5394 25.6097 40.625 25.403 40.625 25.1875V17.875H39V24.375H36.5625ZM8.9375 26V32.5H10.5625V26.8125H15.4375V25.1875H9.75C9.53451 25.1875 9.32785 25.2731 9.17548 25.4255C9.0231 25.5778 8.9375 25.7845 8.9375 26ZM25.1875 15.4375H26.8125V10.5625C26.8125 10.347 26.7269 10.1403 26.5745 9.98798C26.4222 9.8356 26.2155 9.75 26 9.75H17.875V11.375H25.1875V15.4375ZM26.8125 36.5625H25.1875V43.0625C25.1875 43.278 25.2731 43.4847 25.4255 43.637C25.5778 43.7894 25.7845 43.875 26 43.875H37.375V42.25H26.8125V36.5625Z" fill="#FF8728"></path>
    </g>
  </g>
</svg>
