<?xml version="1.0" encoding="UTF-8"?>
<svg xmlns="http://www.w3.org/2000/svg" width="52" height="52" viewBox="0 0 52 52" fill="none">
  <g id="Frame" clip-path="url(#clip0_210_1064)">
    <g id="Group">
      <path id="Vector" d="M51.2383 42.8492C51.0363 42.8492 50.8425 42.9294 50.6997 43.0723C50.5568 43.2151 50.4766 43.4089 50.4766 43.6109V48.7005C50.4766 48.7711 50.4191 48.8287 50.3483 48.8287H47.454V37.6998C47.454 37.2792 47.113 36.9381 46.6922 36.9381C46.2715 36.9381 45.9305 37.2792 45.9305 37.6998V48.8288H40.3375L41.8513 47.1635C42.0851 46.9063 42.1953 46.5409 42.1462 46.1862C42.1451 46.1786 42.1439 46.171 42.1427 46.1634L40.441 36.1092L40.7541 35.6378L40.8357 35.6957C40.9759 35.7955 41.1362 35.8636 41.3053 35.8955C41.4744 35.9274 41.6485 35.9222 41.8154 35.8804C41.9824 35.8387 42.1384 35.7613 42.2727 35.6535C42.4069 35.5458 42.5162 35.4102 42.593 35.2562V35.2561L44.3245 31.7856L48.2799 33.3174C48.436 33.3853 50.4762 34.3208 50.4762 36.7548V40.056C50.4785 40.2565 50.5597 40.448 50.7023 40.589C50.8449 40.73 51.0373 40.809 51.2379 40.8091C51.4384 40.8091 51.6308 40.73 51.7735 40.5891C51.9161 40.4481 51.9974 40.2566 51.9997 40.0561V36.7549C51.9997 33.2398 48.9848 31.9601 48.8565 31.9072C48.8517 31.9052 48.8469 31.9033 48.842 31.9014L42.1067 29.2929V27.9056C43.1581 27.0598 43.8964 25.8407 44.1181 24.451C44.6425 24.3852 45.129 24.1753 45.5327 23.8281C45.8188 23.582 46.0484 23.277 46.2056 22.934C46.3629 22.591 46.4441 22.218 46.4438 21.8407C46.4441 21.2359 46.2351 20.6497 45.8523 20.1815V18.126C45.8523 14.1036 42.5798 10.8311 38.5575 10.8311C36.7516 10.8311 35.0982 11.4921 33.8229 12.5831C33.8071 12.0041 33.5998 11.4466 33.2334 10.998V8.94268C33.2334 4.92021 29.9609 1.64777 25.9386 1.64777C21.9161 1.64777 18.6437 4.92031 18.6437 8.94268V11.0516C18.2776 11.4892 18.0727 12.0167 18.0546 12.5766C17.2226 11.8648 16.2405 11.3504 15.1816 11.0718C14.7742 10.9646 14.3581 11.2076 14.2509 11.6145C14.1438 12.0213 14.3867 12.4381 14.7936 12.5452C17.3238 13.2114 19.091 15.5064 19.091 18.1259V19.2652C19.0435 19.2561 18.996 19.2476 18.9484 19.2396C18.938 19.0246 18.8836 18.8932 18.7664 18.7247C18.5714 18.4444 18.2212 18.0954 17.0949 16.8848C16.9013 16.6761 16.6401 16.5427 16.3576 16.5082C16.0751 16.4738 15.7895 16.5406 15.5515 16.6967C13.6223 17.9568 11.2786 18.5991 9.10354 18.4715C8.39504 18.4299 7.95253 18.7412 7.76393 19.2514C7.74707 19.2541 7.55867 19.2921 7.54821 19.2946V18.1259C7.54821 15.6002 9.23597 13.3279 11.6524 12.6C11.7495 12.5722 11.84 12.5255 11.9187 12.4624C11.9975 12.3993 12.063 12.3212 12.1113 12.2326C12.1597 12.1441 12.1899 12.0468 12.2003 11.9464C12.2108 11.846 12.2011 11.7446 12.172 11.6479C12.1429 11.5513 12.0949 11.4614 12.0308 11.3835C11.9666 11.3056 11.8877 11.2412 11.7984 11.1941C11.7092 11.147 11.6115 11.118 11.511 11.109C11.4105 11.0999 11.3092 11.1109 11.213 11.1413C9.74338 11.5839 8.42236 12.5055 7.49357 13.736C6.53249 15.009 6.02457 16.527 6.02457 18.126V20.2351C5.64087 20.6935 5.43338 21.2507 5.43338 21.8407C5.43338 23.1447 6.39416 24.282 7.76301 24.4517C7.98726 25.8088 8.72359 27.1103 9.88567 27.9953V29.2933L3.15788 31.9017C3.15309 31.9035 3.14831 31.9054 3.14356 31.9073C3.01498 31.9601 0 33.2397 0 36.7548V48.7005C0 49.6114 0.740998 50.3523 1.65191 50.3523H25.1099C25.4257 50.3522 25.7348 50.2611 26 50.0897C26.2653 50.2611 26.5744 50.3523 26.8902 50.3523H50.3483C51.2591 50.3523 52.0001 49.6114 52.0001 48.7005V43.6109C52.0001 43.4088 51.9198 43.2151 51.7769 43.0723C51.6341 42.9294 51.4403 42.8492 51.2383 42.8492ZM7.68847 22.8777C7.2419 22.7156 6.95661 22.3026 6.95661 21.8405C6.95661 21.3923 7.28161 21.024 7.68847 20.8492V22.8777ZM42.8978 31.233L41.4026 34.2297L39.7182 33.0333L41.5877 30.7257L42.8978 31.233ZM38.617 31.9721L36.647 29.5404V28.8097C37.2874 29.0311 37.9772 29.1333 38.6265 29.1335H38.627C39.2983 29.1334 39.978 29.0059 40.5833 28.7781V29.5451L38.617 31.9721ZM39.5114 34.7552L39.2312 35.177H38.0032L37.723 34.7552L38.6172 34.1202L39.5114 34.7552ZM25.998 22.7887L24.028 20.357V19.6262C24.6658 19.8467 25.3549 19.9498 26.0075 19.95H26.008C26.6781 19.95 27.3576 19.8229 27.9643 19.5947V20.3616L25.998 22.7887ZM26.8923 25.572L26.6121 25.9938H25.3841L25.1039 25.572L25.9981 24.9369L26.8923 25.572ZM19.9994 15.1952C20.124 15.2291 20.2519 15.2521 20.3818 15.2682C20.6061 16.6254 21.3424 17.9269 22.5045 18.8118V20.1099L20.9505 20.7122C20.8601 20.5224 20.7472 20.3441 20.6141 20.1814V18.126C20.6146 17.117 20.4053 16.1189 19.9994 15.1952ZM30.0458 14.3886C30.0458 16.6182 28.227 18.4263 26.008 18.4263C23.5044 18.4263 21.8312 16.4859 21.8312 14.3886V10.8205C24.2365 10.9167 26.7353 10.2039 28.7782 8.93232C29.465 9.66885 29.8737 10.0967 30.0459 10.2954L30.0458 14.3886ZM31.4992 15.2677C31.6276 15.2523 31.7547 15.2278 31.8796 15.1944C31.4721 16.118 31.2619 17.1165 31.2625 18.126V20.235C31.147 20.3726 31.046 20.5217 30.9613 20.6801L29.4878 20.1096V18.7222C30.5391 17.8763 31.2775 16.6573 31.4992 15.2677ZM23.0247 21.5434L24.8946 23.8515L23.6194 24.7573L23.6175 24.7588L23.2128 25.0463L21.7175 22.0497L23.0247 21.5434ZM27.7512 23.0449L28.9686 21.5422L30.2787 22.0495L28.7836 25.0463L28.3779 24.7583L28.3767 24.7573L27.0992 23.8498L27.7512 23.0449ZM28.1351 26.4545L28.2166 26.5124C28.3569 26.6121 28.5171 26.6803 28.6863 26.7121C28.8554 26.744 29.0295 26.7389 29.1964 26.697C29.3634 26.6553 29.5194 26.5779 29.6536 26.4702C29.7879 26.3624 29.8972 26.2268 29.974 26.0728V26.0727L31.2596 23.4962C31.7012 24.0405 32.3401 24.3716 32.998 24.4538C33.2304 25.9102 34.0176 27.1531 35.1236 27.9953V29.2932L28.6476 31.8039L27.8219 26.9259L28.1351 26.4545ZM35.6437 30.7268L37.5137 33.0349L35.8318 34.2297L34.3365 31.2331L35.6437 30.7268ZM42.6647 23.572C42.6649 25.7472 40.8984 27.6097 38.627 27.6097C36.038 27.6097 34.4502 25.5819 34.4502 23.572V20.0039C36.8384 20.0993 39.3404 19.3959 41.3971 18.1158C42.084 18.8523 42.4926 19.2802 42.6648 19.4789L42.6647 23.572ZM44.9204 21.8406C44.9204 22.3035 44.6342 22.7157 44.1885 22.8777V20.8056C44.6492 20.9733 44.9204 21.3943 44.9204 21.8406ZM32.786 18.1259C32.786 14.9436 35.3752 12.3546 38.5574 12.3546C41.7398 12.3546 44.3287 14.9437 44.3287 18.1259V19.2652C44.2813 19.256 44.2337 19.2474 44.1861 19.2396C44.1757 19.0244 44.121 18.8927 44.0041 18.7247C43.8039 18.4371 43.4576 18.0941 42.3326 16.8848C41.9397 16.4631 41.292 16.3681 40.7892 16.6967C38.9124 17.9227 36.5411 18.6153 34.2847 18.4687C33.6508 18.4272 33.1917 18.7376 33.0017 19.2515C32.9847 19.2542 32.7966 19.2922 32.7859 19.2947L32.786 18.1259ZM32.9267 20.8493V22.8767C32.4788 22.7152 32.1948 22.3011 32.1948 21.8405C32.1947 21.3923 32.5195 21.0242 32.9267 20.8493ZM32.3012 12.6572C32.3012 12.978 32.1623 13.2813 31.9203 13.4894C31.8167 13.5784 31.6978 13.6478 31.5693 13.6943V11.6221C32.0248 11.7874 32.3012 12.2062 32.3012 12.6572ZM25.9383 3.1712C29.1207 3.1712 31.7097 5.76023 31.7097 8.94258V10.0818C31.6623 10.0726 31.6147 10.0641 31.5671 10.0562C31.5558 9.82292 31.4886 9.67952 31.3514 9.49396C31.1474 9.21792 30.7714 8.83838 29.7136 7.70129C29.52 7.49267 29.2588 7.35932 28.9763 7.32489C28.6938 7.29046 28.4082 7.35717 28.1702 7.51319C26.1881 8.80811 23.7837 9.43831 21.6042 9.2822C21.071 9.24188 20.569 9.56404 20.3827 10.0679C20.3658 10.0706 20.1776 10.1086 20.167 10.1112V8.94268C20.167 5.76023 22.756 3.1712 25.9383 3.1712ZM20.3075 11.6659V13.6944C19.8609 13.5323 19.5756 13.1192 19.5756 12.6571C19.5756 12.2115 19.8981 11.8419 20.3075 11.6659ZM18.9502 20.8056C19.3764 20.9606 19.6501 21.3325 19.6772 21.7744C19.7113 22.2657 19.4094 22.7101 18.9502 22.8768V20.8056ZM18.8796 24.4536C19.5981 24.3637 20.2575 23.9851 20.69 23.4026L22.0223 26.0727L22.0224 26.0728C22.0991 26.2269 22.2084 26.3624 22.3426 26.4702C22.4768 26.578 22.6328 26.6553 22.7998 26.697C23.1343 26.7806 23.4921 26.7166 23.7796 26.5124L23.8611 26.4545L24.1743 26.9258L23.3489 31.8025L16.8688 29.2928V27.9061H16.8687C17.9476 27.0362 18.6631 25.8071 18.8796 24.4536ZM13.3788 31.9721L11.4088 29.5404V28.8097C12.0466 29.0302 12.7358 29.1333 13.3883 29.1334H13.3888C14.0568 29.132 14.7192 29.0117 15.345 28.7781V29.5451L13.3788 31.9721ZM14.2732 34.7552L13.9929 35.177H12.765L12.4847 34.7552L13.379 34.1202L14.2732 34.7552ZM16.3494 30.7257L17.6595 31.2331L16.1643 34.2297L15.7587 33.9416L15.7575 33.9406L14.4799 33.0333L16.3494 30.7257ZM9.212 23.572V20.0039C11.6301 20.1005 14.1305 19.3782 16.1589 18.1158C16.8392 18.8454 17.2542 19.28 17.4266 19.4789V23.572C17.4266 25.7874 15.6203 27.6097 13.3888 27.6097C10.9042 27.6097 9.212 25.6915 9.212 23.572ZM10.4056 30.7268L12.2755 33.0349L11.0003 33.9406L10.9984 33.9421L10.5937 34.2297L9.09836 31.2331L10.4056 30.7268ZM6.06967 48.8289V37.6998C6.06967 37.2792 5.72872 36.9381 5.30795 36.9381C4.88718 36.9381 4.54623 37.2792 4.54623 37.6998V48.8288H1.65191C1.61789 48.8288 1.58527 48.8153 1.5612 48.7912C1.53714 48.7672 1.52359 48.7346 1.52354 48.7006V36.7548C1.52354 34.3083 3.58495 33.3757 3.7184 33.318L7.6713 31.7856L9.40304 35.2561L9.40314 35.2562C9.47992 35.4102 9.58919 35.5458 9.72343 35.6536C9.85767 35.7613 10.0137 35.8387 10.1807 35.8804C10.5152 35.9639 10.873 35.9 11.1605 35.6957L11.242 35.6378L11.5551 36.1092L9.85347 46.1634C9.85218 46.171 9.851 46.1786 9.84992 46.1862C9.80096 46.5407 9.91116 46.9061 10.1451 47.1637L11.6586 48.8288H6.06967V48.8289ZM11.3824 46.2597L13.0002 36.7006H13.7577L15.3756 46.2597L13.379 48.4562L11.3824 46.2597ZM25.2381 48.7005C25.2381 48.7713 25.1806 48.8288 25.1099 48.8288H22.2157V37.6998C22.2157 37.4978 22.1355 37.3041 21.9926 37.1612C21.8498 37.0184 21.656 36.9381 21.454 36.9381C21.252 36.9381 21.0583 37.0184 20.9154 37.1612C20.7726 37.3041 20.6923 37.4978 20.6923 37.6998V48.8288H15.0993L16.6131 47.1635C16.8468 46.9063 16.957 46.5409 16.908 46.1862C16.9069 46.1786 16.9057 46.171 16.9044 46.1634L15.2028 36.1092L15.5159 35.6378L15.5974 35.6957C15.7378 35.7954 15.898 35.8635 16.0671 35.8953C16.2363 35.9272 16.4103 35.9221 16.5773 35.8803C16.7443 35.8386 16.9002 35.7611 17.0344 35.6534C17.1687 35.5457 17.278 35.4101 17.3549 35.2562V35.2561L19.0864 31.7857L23.0417 33.3175C24.1947 33.819 25.238 35.1124 25.238 36.7548L25.2381 48.7005ZM25.9999 33.9868C25.6844 33.4784 25.2643 33.008 24.7579 32.6065L25.6193 27.5173H26.3768L27.2386 32.6091C26.7187 33.022 26.3041 33.4967 25.9999 33.9868ZM31.3078 48.8289V37.6998C31.3078 37.2792 30.9669 36.9381 30.5461 36.9381C30.1253 36.9381 29.7844 37.2792 29.7844 37.6998V48.8288H26.8901C26.8561 48.8288 26.8235 48.8153 26.7994 48.7912C26.7754 48.7672 26.7618 48.7346 26.7618 48.7006V36.7548C26.7618 35.8493 27.0457 35.0152 27.6506 34.3146C28.0539 33.852 28.5889 33.4774 28.9567 33.318L32.9096 31.7855L34.6414 35.2561L34.6415 35.2562C34.7182 35.4102 34.8275 35.5458 34.9617 35.6536C35.0959 35.7613 35.2519 35.8387 35.4189 35.8804C35.7534 35.9639 36.1112 35.9 36.3987 35.6957L36.4803 35.6378L36.7934 36.1092L35.0917 46.1634C35.0904 46.171 35.0892 46.1786 35.0881 46.1862C35.0392 46.5407 35.1494 46.9061 35.3833 47.1637L36.8969 48.8288H31.3078V48.8289ZM36.6205 46.2598L38.2384 36.7007H38.996L40.6138 46.2598L38.6171 48.4563L36.6205 46.2598Z" fill="#FF8728"></path>
    </g>
  </g>
  <defs>
    <clipPath id="clip0_210_1064">
      <rect width="52" height="52" fill="white"></rect>
    </clipPath>
  </defs>
</svg>
