<?xml version="1.0" encoding="UTF-8"?>
<svg xmlns="http://www.w3.org/2000/svg" width="52" height="52" viewBox="0 0 52 52" fill="none">
  <g id="Frame">
    <g id="Group">
      <path id="Vector" d="M29.5995 12.9259C29.1258 12.4526 28.4962 12.1916 27.8265 12.1916C27.1568 12.1916 26.5272 12.4526 26.0539 12.9259C25.5802 13.3995 25.3192 14.0291 25.3192 14.6988C25.3192 15.3685 25.5802 15.9981 26.0535 16.4714L30.3247 20.7425C30.798 21.2158 31.428 21.4768 32.0977 21.4768C32.7674 21.4768 33.3967 21.2158 33.8703 20.7425L42.9959 11.617C43.4696 11.1433 43.7302 10.5138 43.7302 9.84445C43.7302 9.17475 43.4696 8.54516 42.9959 8.07148C42.5226 7.59779 41.8925 7.33718 41.2229 7.33718C40.5533 7.33718 39.9236 7.59779 39.4503 8.07148L38.4441 9.07755C37.7034 8.51124 36.8849 8.05479 36.0138 7.72231V6.58176C36.0138 5.19909 34.8891 4.07438 33.5069 4.07438H25.6453V3.20399C25.6453 1.43731 24.2079 0 22.4412 0H13.674C11.9073 0 10.47 1.43731 10.47 3.20399V6.82398C10.47 7.80548 11.2686 8.60417 12.2501 8.60417H23.8652C24.8468 8.60417 25.6453 7.80548 25.6453 6.82398V5.60016H33.5065C34.0476 5.60016 34.488 6.04053 34.488 6.58166V7.28427C33.8557 7.15568 33.2122 7.09056 32.567 7.08987C27.2235 7.08987 22.8761 11.4372 22.8761 16.7808C22.8761 22.1243 27.2235 26.4717 32.567 26.4717C33.2189 26.4717 33.8615 26.4061 34.488 26.2804V49.4929C34.488 50.0342 34.0476 50.474 33.5065 50.474H2.60853C2.0673 50.474 1.62744 50.0342 1.62744 49.4929V6.58176C1.62744 6.04063 2.0673 5.60026 2.60853 5.60026H7.67985C7.88219 5.60026 8.07625 5.51988 8.21933 5.3768C8.36241 5.23372 8.44279 5.03966 8.44279 4.83732C8.44279 4.63498 8.36241 4.44092 8.21933 4.29784C8.07625 4.15476 7.88219 4.07438 7.67985 4.07438H2.60853C1.22627 4.07438 0.101562 5.19909 0.101562 6.58176V49.493C0.101562 50.8753 1.22627 52 2.60853 52H33.5069C34.8892 52 36.0139 50.8753 36.0139 49.493V25.8393C37.2427 25.3719 38.3635 24.6589 39.3075 23.7438C41.1197 21.9891 42.1659 19.6365 42.2523 17.1193C42.2592 16.9171 42.1855 16.7204 42.0474 16.5725C41.9094 16.4246 41.7182 16.3376 41.516 16.3305C41.0979 16.3166 40.7421 16.6456 40.7274 17.0669C40.6055 20.6101 38.2757 23.5355 35.0759 24.5563C35.0323 24.5662 34.9896 24.5801 34.9486 24.5979C34.1956 24.8244 33.3962 24.9459 32.567 24.9459C28.065 24.9459 24.402 21.2829 24.402 16.7809C24.402 12.2787 28.065 8.61575 32.567 8.61575C34.2865 8.61502 35.9622 9.15811 37.3544 10.1673L32.0977 15.4244L29.5995 12.9259ZM24.1195 6.82398C24.1195 6.85738 24.1129 6.89045 24.1001 6.92131C24.0873 6.95216 24.0686 6.9802 24.045 7.00381C24.0214 7.02743 23.9933 7.04616 23.9625 7.05894C23.9316 7.07172 23.8986 7.0783 23.8652 7.0783H12.2502C12.2168 7.0783 12.1837 7.07172 12.1528 7.05894C12.122 7.04616 12.094 7.02743 12.0703 7.00381C12.0467 6.9802 12.028 6.95216 12.0152 6.92131C12.0024 6.89045 11.9959 6.85738 11.9959 6.82398V3.20399C11.9959 2.27845 12.7484 1.52577 13.6741 1.52577H22.4414C23.3666 1.52577 24.1195 2.27835 24.1195 3.20399V6.82398ZM40.5295 9.15058C40.6203 9.05911 40.7284 8.98658 40.8474 8.9372C40.9665 8.88783 41.0941 8.86259 41.223 8.86295C41.352 8.86267 41.4797 8.88795 41.5989 8.93731C41.7181 8.98668 41.8263 9.05916 41.9173 9.15058C42.2997 9.53296 42.2997 10.1558 41.9173 10.5383L32.7913 19.6638C32.7004 19.7553 32.5923 19.8278 32.4732 19.8771C32.354 19.9265 32.2263 19.9518 32.0974 19.9514C31.9685 19.9518 31.8408 19.9265 31.7217 19.8771C31.6026 19.8278 31.4944 19.7553 31.4035 19.6638L27.1323 15.3927C27.0409 15.3018 26.9685 15.1937 26.9192 15.0745C26.8699 14.9554 26.8447 14.8277 26.8451 14.6988C26.8447 14.5699 26.8699 14.4422 26.9193 14.323C26.9687 14.2039 27.0412 14.0958 27.1327 14.005C27.2236 13.9135 27.3317 13.841 27.4508 13.7916C27.5699 13.7422 27.6977 13.7169 27.8266 13.7172C27.9555 13.717 28.0832 13.7423 28.2023 13.7916C28.3214 13.841 28.4296 13.9135 28.5205 14.005L31.5582 17.0427C31.629 17.1135 31.7131 17.1697 31.8057 17.2081C31.8982 17.2464 31.9974 17.2662 32.0976 17.2662C32.1978 17.2662 32.297 17.2464 32.3895 17.2081C32.4821 17.1697 32.5662 17.1135 32.637 17.0427L40.5295 9.15058Z" fill="#FF8728"></path>
      <path id="Vector_2" d="M20.8647 19.1493H11.5689C11.4687 19.1493 11.3696 19.1691 11.277 19.2074C11.1845 19.2458 11.1004 19.302 11.0296 19.3728C10.9588 19.4437 10.9026 19.5278 10.8643 19.6203C10.826 19.7129 10.8063 19.8121 10.8064 19.9122C10.8064 20.1145 10.8868 20.3084 11.0297 20.4514C11.1727 20.5943 11.3667 20.6747 11.5689 20.6747H20.8647C21.067 20.6747 21.2609 20.5944 21.404 20.4514C21.547 20.3084 21.6274 20.1145 21.6276 19.9122C21.6276 19.7099 21.5472 19.5158 21.4041 19.3728C21.261 19.2297 21.067 19.1493 20.8646 19.1493H20.8647ZM10.1129 11.2747H4.97963C4.77883 11.277 4.58703 11.3584 4.44585 11.5012C4.30467 11.644 4.2255 11.8367 4.2255 12.0375C4.2255 12.2384 4.30467 12.4311 4.44585 12.5739C4.58703 12.7167 4.77883 12.7981 4.97963 12.8004H10.1129C10.3137 12.7981 10.5055 12.7167 10.6467 12.5739C10.7879 12.4311 10.867 12.2384 10.867 12.0375C10.867 11.8367 10.7879 11.644 10.6467 11.5012C10.5055 11.3584 10.3137 11.277 10.1129 11.2747ZM11.5689 24.2139H20.8647C21.067 24.2139 21.2611 24.1335 21.4041 23.9904C21.5472 23.8474 21.6276 23.6533 21.6276 23.451C21.6274 23.2487 21.547 23.0548 21.4039 22.9118C21.2609 22.7688 21.0669 22.6885 20.8646 22.6886H11.5689C11.3667 22.6886 11.1727 22.7689 11.0297 22.9119C10.8868 23.0548 10.8064 23.2488 10.8064 23.451C10.8063 23.5512 10.826 23.6503 10.8643 23.7429C10.9026 23.8355 10.9588 23.9196 11.0296 23.9904C11.1004 24.0613 11.1845 24.1175 11.277 24.1558C11.3696 24.1942 11.4687 24.2139 11.5689 24.2139ZM24.0758 28.4018H11.5689C11.4687 28.4018 11.3696 28.4215 11.277 28.4599C11.1845 28.4982 11.1004 28.5544 11.0296 28.6253C10.9588 28.6961 10.9026 28.7802 10.8643 28.8728C10.826 28.9653 10.8063 29.0645 10.8064 29.1647C10.8063 29.2649 10.826 29.3641 10.8643 29.4566C10.9026 29.5492 10.9588 29.6333 11.0296 29.7041C11.1004 29.775 11.1845 29.8312 11.277 29.8695C11.3696 29.9079 11.4687 29.9276 11.5689 29.9276H24.0758C24.2782 29.9276 24.4722 29.8472 24.6153 29.7042C24.7584 29.5611 24.8388 29.367 24.8388 29.1647C24.8388 28.9623 24.7584 28.7683 24.6153 28.6252C24.4722 28.4821 24.2782 28.4018 24.0758 28.4018ZM11.5689 33.4669H17.8225C17.9227 33.4669 18.0219 33.4471 18.1144 33.4088C18.2069 33.3704 18.291 33.3142 18.3618 33.2434C18.4326 33.1725 18.4888 33.0884 18.5271 32.9959C18.5654 32.9033 18.5851 32.8041 18.585 32.7039C18.5851 32.6038 18.5654 32.5046 18.5271 32.412C18.4888 32.3195 18.4326 32.2354 18.3618 32.1645C18.291 32.0937 18.2069 32.0375 18.1144 31.9991C18.0219 31.9608 17.9227 31.941 17.8225 31.941H11.5689C11.4687 31.941 11.3696 31.9608 11.277 31.9991C11.1845 32.0375 11.1004 32.0937 11.0296 32.1645C10.9588 32.2354 10.9026 32.3195 10.8643 32.412C10.826 32.5046 10.8063 32.6038 10.8064 32.7039C10.8063 32.8041 10.826 32.9033 10.8643 32.9959C10.9026 33.0884 10.9588 33.1725 11.0296 33.2434C11.1004 33.3142 11.1845 33.3704 11.277 33.4088C11.3696 33.4471 11.4687 33.4669 11.5689 33.4669ZM11.5689 39.19H20.8647C21.0655 39.1877 21.2573 39.1063 21.3985 38.9635C21.5397 38.8207 21.6189 38.628 21.6189 38.4271C21.6189 38.2263 21.5397 38.0336 21.3985 37.8908C21.2573 37.748 21.0655 37.6666 20.8647 37.6643H11.5689C11.1476 37.6643 10.8064 38.0058 10.8064 38.4271C10.8064 38.8484 11.1476 39.19 11.5689 39.19ZM11.5689 42.7289H24.0758C24.2781 42.7288 24.4722 42.6485 24.6152 42.5054C24.7583 42.3623 24.8387 42.1683 24.8387 41.9659C24.8386 41.7637 24.7582 41.5697 24.6151 41.4267C24.4721 41.2837 24.2781 41.2034 24.0758 41.2034H11.5689C11.3667 41.2034 11.1727 41.2837 11.0297 41.4267C10.8867 41.5697 10.8064 41.7637 10.8064 41.9659C10.8063 42.0661 10.826 42.1653 10.8643 42.2579C10.9026 42.3504 10.9588 42.4345 11.0296 42.5054C11.1004 42.5762 11.1845 42.6324 11.277 42.6708C11.3696 42.7091 11.4687 42.7289 11.5689 42.7289ZM6.59874 18.4879C4.8996 18.4879 3.51733 19.8702 3.51733 21.5693C3.51733 23.2685 4.8996 24.6507 6.59874 24.6507C8.29788 24.6507 9.68015 23.2685 9.68015 21.5693C9.68015 19.8702 8.29788 18.4879 6.59874 18.4879ZM6.59874 23.1249C5.74094 23.1249 5.04311 22.4271 5.04311 21.5693C5.04311 20.7115 5.74094 20.0138 6.59874 20.0138C7.45644 20.0138 8.15427 20.7115 8.15427 21.5693C8.15427 22.4271 7.45644 23.1249 6.59874 23.1249ZM6.59874 27.8527C4.8996 27.8527 3.51733 29.2353 3.51733 30.9341C3.51733 32.6333 4.8996 34.0155 6.59874 34.0155C8.29788 34.0155 9.68015 32.6333 9.68015 30.9341C9.68015 29.2353 8.29788 27.8527 6.59874 27.8527ZM6.59874 32.4901C5.74094 32.4901 5.04311 31.7923 5.04311 30.9345C5.04311 30.0763 5.74094 29.3786 6.59874 29.3786C7.45644 29.3786 8.15427 30.0763 8.15427 30.9345C8.15427 31.7922 7.45644 32.4901 6.59874 32.4901ZM6.59874 37.1151C4.8996 37.1151 3.51733 38.4974 3.51733 40.1965C3.51733 41.8957 4.8996 43.2779 6.59874 43.2779C8.29788 43.2779 9.68015 41.8957 9.68015 40.1965C9.68015 38.4974 8.29788 37.1151 6.59874 37.1151ZM6.59874 41.7521C5.74094 41.7521 5.04311 41.0543 5.04311 40.1965C5.04311 39.3387 5.74094 38.641 6.59874 38.641C7.45644 38.641 8.15427 39.3387 8.15427 40.1965C8.15427 41.0543 7.45644 41.7521 6.59874 41.7521Z" fill="#FF8728"></path>
    </g>
  </g>
</svg>
